<svg version="1.0" xmlns="http://www.w3.org/2000/svg"
 width="222.000000pt" height="128.000000pt" viewBox="0 0 222.000000 128.000000"
 preserveAspectRatio="xMidYMid meet">

<g transform="translate(0.000000,128.000000) scale(0.100000,-0.100000)"
fill="#000000" stroke="none">
<path d="M82 1228 c-6 -6 -12 -21 -12 -32 0 -29 490 -1077 518 -1108 40 -43
66 -49 226 -46 l149 3 250 538 250 537 196 0 c168 0 202 -3 236 -19 50 -22 96
-68 120 -118 58 -119 3 -338 -104 -421 -53 -40 -35 -41 44 -3 75 36 136 98
172 176 24 51 28 73 28 145 0 75 -4 93 -31 150 -40 82 -92 134 -174 174 l-65
31 -234 0 -234 0 -266 -572 c-146 -315 -268 -573 -271 -573 -3 0 -125 258
-271 573 l-266 572 -124 3 c-88 2 -128 -1 -137 -10z"/>
<path d="M1460 305 c0 -216 0 -216 25 -240 22 -23 31 -25 125 -25 94 0 103 2
125 25 25 24 25 24 25 240 l0 215 -150 0 -150 0 0 -215z"/>
</g>
</svg>
